<svg xmlns="http://www.w3.org/2000/svg" width="600" height="765" viewBox="0 0 600 765"><rect width="100%" height="100%" fill="#DDDDDD"/><path fill="#999999" d="m156.74 353.58-17.16 21-2 2.48q1.68-.84 3.62-1.3t4.18-.46q3.28 0 6.38 1.08t5.46 3.26 3.8 5.42 1.44 7.56q0 4.04-1.48 7.58t-4.16 6.18-6.46 4.16-8.34 1.52q-4.64 0-8.32-1.48t-6.28-4.14-3.98-6.4-1.38-8.3q0-4.08 1.66-8.38t5.14-8.94l13.8-18.52q.72-.96 2.1-1.64t3.18-.68zm-14.92 50.4q2.36 0 4.34-.8t3.4-2.24 2.22-3.38.8-4.22q0-2.48-.76-4.46t-2.16-3.36-3.36-2.1-4.32-.72-4.28.8-3.28 2.22-2.12 3.36-.76 4.18q0 2.4.66 4.38t1.96 3.38 3.22 2.18 4.44.78m67.68-21.48q0 7.56-1.62 13.14t-4.48 9.22-6.76 5.42-8.42 1.78-8.38-1.78-6.7-5.42-4.44-9.22-1.6-13.14q0-7.6 1.6-13.16t4.44-9.2 6.7-5.42 8.38-1.78 8.42 1.78 6.76 5.42 4.48 9.2 1.62 13.16m-10.2 0q0-6.28-.92-10.4t-2.46-6.56-3.54-3.42-4.16-.98q-2.12 0-4.1.98t-3.5 3.42-2.42 6.56-.9 10.4.9 10.4 2.42 6.56 3.5 3.42 4.1.98q2.16 0 4.16-.98t3.54-3.42 2.46-6.56.92-10.4m56.6 0q0 7.56-1.62 13.14t-4.48 9.22-6.76 5.42-8.42 1.78-8.38-1.78-6.7-5.42-4.44-9.22-1.6-13.14q0-7.6 1.6-13.16t4.44-9.2 6.7-5.42 8.38-1.78 8.42 1.78 6.76 5.42 4.48 9.2 1.62 13.16m-10.2 0q0-6.28-.92-10.4t-2.46-6.56-3.54-3.42-4.16-.98q-2.12 0-4.1.98t-3.5 3.42-2.42 6.56-.9 10.4.9 10.4 2.42 6.56 3.5 3.42 4.1.98q2.16 0 4.16-.98t3.54-3.42 2.46-6.56.92-10.4m73.72 15.68-5.24 5.16-13.56-13.56-13.68 13.64-5.24-5.16 13.68-13.72-13.04-13.04 5.2-5.2 13.04 13.04 12.96-12.96 5.28 5.2-13 13zm27.48-44.6h39.96v4.28q0 1.92-.4 3.1t-.8 1.98l-21.92 45.12q-.68 1.4-1.92 2.38t-3.32.98h-7.16l22.36-44.2q.76-1.36 1.5-2.5t1.66-2.18h-27.68q-.92 0-1.6-.68t-.68-1.6zm80.72 0-17.16 21-2 2.48q1.68-.84 3.62-1.3t4.18-.46q3.28 0 6.38 1.08t5.46 3.26 3.8 5.42 1.44 7.56q0 4.04-1.48 7.58t-4.16 6.18-6.46 4.16-8.34 1.52q-4.64 0-8.32-1.48t-6.28-4.14-3.98-6.4-1.38-8.3q0-4.08 1.66-8.38t5.14-8.94l13.8-18.52q.72-.96 2.1-1.64t3.18-.68zm-14.92 50.4q2.36 0 4.34-.8t3.4-2.24 2.22-3.38.8-4.22q0-2.48-.76-4.46t-2.16-3.36-3.36-2.1-4.32-.72-4.28.8-3.28 2.22-2.12 3.36-.76 4.18q0 2.4.66 4.38t1.96 3.38 3.22 2.18 4.44.78m41.56-41.44-2.04 12.04q1.92-.4 3.68-.58t3.4-.18q4.56 0 8.04 1.36t5.84 3.76 3.56 5.62 1.2 6.94q0 4.6-1.62 8.4t-4.5 6.5-6.82 4.18-8.58 1.48q-2.72 0-5.16-.56t-4.58-1.5-3.96-2.16-3.26-2.58l3.04-4.2q.96-1.36 2.52-1.36 1 0 2.04.64t2.38 1.4 3.16 1.4 4.38.64q2.72 0 4.8-.88t3.46-2.46 2.08-3.76.7-4.74q0-4.72-2.74-7.38t-8.1-2.66q-4.12 0-8.44 1.52l-6.16-1.76 4.8-28.08h28.56v4.2q0 2.12-1.32 3.44t-4.48 1.32z"/></svg>